PathFileType	4	(X/Y/Z)	T00_Trial_0-100.trc
DataRate	CameraRate	NumFrames	NumMarkers	Units	OrigDataRate	OrigDataStartFrame	OrigNumFrames
60	60	4	22	m	60	0	100
Frame#	Time	Hip			RHip			RKnee			RAnkle			RBigToe			RSmallToe			RHeel			LHip			LKnee			LAnkle			LBigToe			LSmallToe			LHeel			Neck			Head			Nose			RShoulder			RElbow			RWrist			LShoulder			LElbow			LWrist		
		X1	Y1	Z1	X2	Y2	Z2	X3	Y3	Z3	X4	Y4	Z4	X5	Y5	Z5	X6	Y6	Z6	X7	Y7	Z7	X8	Y8	Z8	X9	Y9	Z9	X10	Y10	Z10	X11	Y11	Z11	X12	Y12	Z12	X13	Y13	Z13	X14	Y14	Z14	X15	Y15	Z15	X16	Y16	Z16	X17	Y17	Z17	X18	Y18	Z18	X19	Y19	Z19	X20	Y20	Z20	X21	Y21	Z21	X22	Y22	Z22
0	0.0	0.023967165202274113	0.9152862153296459	-1.4081199201245778	-0.07288867453568586	0.898974792286803	-1.4166360617228	-0.03275031063354192	0.5016079986597504	-1.4177483906386523	0.027868071214952106	0.16128038391877572	-1.5790504578044182	-0.02968638246919364	0.08398305255675419	-1.3547170258531294	-0.024279650970110894	0.0842480324102331	-1.4542077514530964	0.053202673282557095	0.10471013037871697	-1.6160940153916286	0.1542751205032166	0.8884011086890715	-1.3848100914319426	0.05977370655839896	0.6301792341766143	-0.9853480525263205	0.004329568667482385	0.16233768395484496	-1.1664244686488785	-0.03685658881546061	0.12684029874878383	-0.9652710568450954	0.014285061339561278	0.11727856001174591	-0.9848989709167126	0.0031195525446285283	0.10487378874790872	-1.1921730888196524	-0.03525579074817681	1.4820432816774212	-1.3704588333539112	-0.0732964526183379	1.7038171566929305	-1.2692389978259468	-0.06101575231003887	1.5586742925688162	-1.2085386700560352	-0.19904447274647039	1.3788655156679326	-1.4149266109619507	-0.28999032033660277	1.1242874119730237	-1.4847410729652077	-0.3731299380424533	0.9195089802006408	-1.3650809269833666	0.14633820661298047	1.4055768200341368	-1.4148430072380858	0.2688546675334753	1.1757700946759728	-1.4723457762672763	0.34958181950957434	0.9505092836764221	-1.44933428422655
1	0.016666666666666666	0.020916353239777707	0.9097415923026916	-1.407633381394854	-0.077350830322383	0.893016517230162	-1.422789618618736	-0.03735823464059289	0.4951396735898995	-1.4193473274139257	0.025680995978848237	0.1615850275580813	-1.5762063842413248	0.004431748111386817	0.07447726257087149	-1.400991104608382	-0.02266900491218002	0.07112372836058153	-1.4764863804309958	0.04873375546063917	0.11168153092346468	-1.6162737742092255	0.1545615179457864	0.8774171120568247	-1.3887520185661584	0.025319187785620176	0.5845301593937434	-1.1452132692350934	0.002484274932101975	0.16517276110521226	-1.151777863601013	-0.0432382824734128	0.11946082238500572	-0.9693226747560503	0.010963649151563627	0.11591887967004401	-0.9814190571666946	0.0011149571549635305	0.10477089859608997	-1.1778187081251035	-0.028792472549288014	1.4785324199271965	-1.356158128465114	-0.060555421340307766	1.70141785534459	-1.2504680079604595	-0.055448944837561506	1.5571274587830695	-1.1991274027632188	-0.19055693691234707	1.381230508890502	-1.4066082917217555	-0.29073798641041115	1.126327812472778	-1.4861108719408105	-0.377995308381256	0.9273879630206968	-1.3568979798423741	0.1586686819094741	1.404485247386815	-1.4005099592598709	0.27589947167036905	1.1637053015567036	-1.451530646622974	0.35329687897734013	0.936165344021157	-1.4258151837552069
2	0.03333333333333333	0.0178655412772813	0.9041969692757372	-1.4071468426651303	-0.08181298610908015	0.8870582421735209	-1.4289431755146722	-0.04196615864764386	0.4886713485200487	-1.420946264189199	0.023493920742744367	0.16188967119738687	-1.5733623106782313	0.03854987869196727	0.0649714725849888	-1.4472651833636347	-0.021058358854249143	0.05799942431092997	-1.4987650094088951	0.044264837638721244	0.11865293146821239	-1.6164535330268224	0.1548479153883562	0.8664331154245779	-1.3926939457003742	-0.009135330987158607	0.5388810846108726	-1.3050784859438662	0.0006389811967215644	0.16800783825557955	-1.1371312585531475	-0.049619976131364985	0.11208134602122759	-0.9733742926670051	0.0076422369635659754	0.1145591993283421	-0.9779391434166766	-0.0008896382347014673	0.10466800844427122	-1.1634643274305545	-0.02232915435039922	1.475021558176972	-1.341857423576317	-0.047814390062277626	1.6990185539962495	-1.2316970180949722	-0.049882137365084143	1.5555806249973227	-1.1897161354704024	-0.18206940107822375	1.3835955021130713	-1.3982899724815603	-0.29148565248421954	1.1283682129725323	-1.4874806709164132	-0.3828606787200587	0.9352669458407529	-1.3487150327013817	0.17099915720596776	1.4033936747394933	-1.386176911281656	0.2829442758072628	1.1516405084374344	-1.4307155169786718	0.3570119384451059	0.921821404365892	-1.4022960832838638
3	0.05	-0.01221386255361632	0.8998008297703504	-1.4593910101149978	-0.08221365301698906	0.8864504646707283	-1.4231523051669521	-0.04633561332013173	0.484147075235575	-1.43862406299505	0.02885091642429317	0.153331334610607	-1.5929957023601762	-0.0009824433849172122	0.06201126610870632	-1.4169698966535205	-0.002219949142527135	0.04367769871214242	-1.5656855574258886	0.046416546002741976	0.1088187640864902	-1.6288291434029307	0.08710388447701425	0.8915381805133047	-1.444810043754711	0.019034366445931268	0.523407194510728	-1.2426311087548116	0.00018185758208126847	0.1530041464530281	-1.1617748436005646	-0.04694831072548947	0.0977887414764104	-0.9911380400704253	0.010885668676125447	0.10188485032958484	-1.0061588423264738	-0.00362894598331533	0.09576639148532255	-1.1911611760841132	-0.015014769024060577	1.47548392603162	-1.329108032776763	-0.047130243718400966	1.6951915107180282	-1.265341243247568	-0.0473567734181628	1.5553056265385246	-1.187494175951274	-0.18009405758628202	1.3873029400273358	-1.3895736690380625	-0.2886604150671256	1.1378758926624672	-1.480869654388313	-0.3813542555152312	0.9477922574604691	-1.3455500940195062	0.14408105740738503	1.4084635871524291	-1.455839159724454	0.27555531202775524	1.149937176220261	-1.4546426729581043	0.3543980695206873	0.9138042833242387	-1.4201401592704164
